<svg height="480pt" viewBox="0 0 480 480" width="480pt" xmlns="http://www.w3.org/2000/svg"><path d="m416 88c-40 0-51.945312 28.566406-64 40-12.054688-11.433594-24-40-64-40-37.128906 0-56 42.871094-56 80 0 64 120 136 120 136s120-72 120-136c0-37.128906-18.871094-80-56-80zm0 0" fill="#dd3e46"/><path d="m192 8c-40 0-51.945312 28.566406-64 40-12.054688-11.433594-24-40-64-40-37.128906 0-56 42.871094-56 80 0 64 120 136 120 136s120-72 120-136c0-37.128906-18.871094-80-56-80zm0 0" fill="#f98c96"/><path d="m304 256c-40 0-51.945312 28.566406-64 40-12.054688-11.433594-24-40-64-40-37.128906 0-56 42.871094-56 80 0 64 120 136 120 136s120-72 120-136c0-37.128906-18.871094-80-56-80zm0 0" fill="#f98c96"/><g fill="#fff"><path d="m140.441406 182.65625-8.882812-13.3125c.679687-.457031 68.441406-46.207031 68.441406-89.34375h16c0 51.6875-72.480469 100.601562-75.558594 102.65625zm0 0"/><path d="m216 56h-16c.207031-2.195312-.582031-4.367188-2.152344-5.917969-1.570312-1.550781-3.75-2.316406-5.945312-2.082031l.097656-16c6.421875-.1875 12.636719 2.28125 17.175781 6.824219 4.542969 4.539062 7.011719 10.753906 6.824219 17.175781zm0 0"/><path d="m364.441406 262.65625-8.882812-13.3125c.679687-.457031 68.441406-46.207031 68.441406-89.34375h16c0 51.6875-72.480469 100.601562-75.558594 102.65625zm0 0"/><path d="m440 136h-16c.207031-2.195312-.582031-4.367188-2.152344-5.917969-1.570312-1.550781-3.75-2.316406-5.945312-2.082031l.097656-16c6.421875-.1875 12.636719 2.28125 17.175781 6.824219 4.542969 4.539062 7.011719 10.753906 6.824219 17.175781zm0 0"/><path d="m252.441406 430.65625-8.882812-13.3125c.679687-.457031 68.441406-46.207031 68.441406-89.34375h16c0 51.6875-72.480469 100.601562-75.558594 102.65625zm0 0"/><path d="m328 304h-16c.207031-2.195312-.582031-4.367188-2.152344-5.917969-1.570312-1.550781-3.75-2.316406-5.945312-2.082031l.097656-16c6.421875-.1875 12.636719 2.28125 17.175781 6.824219 4.542969 4.539062 7.011719 10.753906 6.824219 17.175781zm0 0"/></g><path d="m131.558594 169.34375 8.882812 13.3125c3.078125-2.054688 75.558594-50.96875 75.558594-102.65625h-16c0 43.136719-67.761719 88.886719-68.441406 89.34375zm0 0"/><path d="m192 32-.097656 16c2.195312-.234375 4.375.53125 5.945312 2.082031 1.570313 1.550781 2.359375 3.722657 2.152344 5.917969h16c.1875-6.421875-2.28125-12.636719-6.824219-17.175781-4.539062-4.542969-10.753906-7.011719-17.175781-6.824219zm0 0"/><path d="m355.558594 249.34375 8.882812 13.3125c3.078125-2.054688 75.558594-50.96875 75.558594-102.65625h-16c0 43.136719-67.761719 88.886719-68.441406 89.34375zm0 0"/><path d="m416 112-.097656 16c2.195312-.234375 4.375.53125 5.945312 2.082031 1.570313 1.550781 2.359375 3.722657 2.152344 5.917969h16c.1875-6.421875-2.28125-12.636719-6.824219-17.175781-4.539062-4.542969-10.753906-7.011719-17.175781-6.824219zm0 0"/><path d="m243.558594 417.34375 8.882812 13.3125c3.078125-2.054688 75.558594-50.96875 75.558594-102.65625h-16c0 43.136719-67.761719 88.886719-68.441406 89.34375zm0 0"/><path d="m304 280-.097656 16c2.195312-.234375 4.375.53125 5.945312 2.082031 1.570313 1.550781 2.359375 3.722657 2.152344 5.917969h16c.1875-6.421875-2.28125-12.636719-6.824219-17.175781-4.539062-4.542969-10.753906-7.011719-17.175781-6.824219zm0 0"/><path d="m416 80c-35.328125 0-51.550781 20.34375-62.289062 33.808594l-1.710938 2.144531-1.710938-2.144531c-10.738281-13.464844-26.960937-33.808594-62.289062-33.808594-11.65625-.050781-22.988281 3.835938-32.160156 11.03125.046875-1.007812.160156-2.023438.160156-3.03125 0-42.664062-22.398438-88-64-88-35.328125 0-51.550781 20.34375-62.289062 33.808594l-1.710938 2.144531-1.710938-2.144531c-10.738281-13.464844-26.960937-33.808594-62.289062-33.808594-41.601562 0-64 45.335938-64 88 0 67.753906 118.824219 139.824219 123.878906 142.855469 2.535156 1.523437 5.707032 1.523437 8.242188 0 34.285156-20.949219 65.480468-46.582031 92.679687-76.160157-.507812 4.417969-.773437 8.859376-.800781 13.304688 0 25.71875 16.742188 54.6875 49.734375 86.183594-12.773437 6.4375-23.765625 15.925781-32 27.625l-1.734375 2.144531-1.710938-2.144531c-10.738281-13.464844-26.960937-33.808594-62.289062-33.808594-41.601562 0-64 45.335938-64 88 0 67.753906 118.824219 139.824219 123.878906 142.855469 2.535156 1.523437 5.707032 1.523437 8.242188 0 5.054687-3.03125 123.878906-75.101563 123.878906-142.855469-.015625-10.195312-1.292969-20.351562-3.800781-30.230469 32.878906-21.226562 115.800781-80.464843 115.800781-137.769531 0-42.664062-22.398438-88-64-88zm-288 134.59375c-34.808594-21.738281-112-79.777344-112-126.59375 0-29.894531 14.886719-72 48-72 27.625 0 39.390625 14.761719 49.777344 27.785156 2.675781 3.53125 5.589844 6.882813 8.71875 10.023438 3.085937 2.925781 7.921875 2.925781 11.007812 0 3.128906-3.140625 6.042969-6.492188 8.71875-10.023438 10.386719-13.023437 22.152344-27.785156 49.777344-27.785156 33.113281 0 48 42.105469 48 72 0 52.375-91.433594 113.496094-112 126.59375zm112 248c-34.808594-21.738281-112-79.777344-112-126.59375 0-29.894531 14.886719-72 48-72 27.625 0 39.390625 14.761719 49.777344 27.785156 2.675781 3.53125 5.589844 6.882813 8.71875 10.023438 3.085937 2.925781 7.921875 2.925781 11.007812 0 3.128906-3.140625 6.042969-6.492188 8.71875-10.023438 10.386719-13.023437 22.152344-27.785156 49.777344-27.785156 33.113281 0 48 42.105469 48 72 0 52.375-91.433594 113.496094-112 126.59375zm118.960938-172.554688c-10.160157-24.007812-28.753907-42.039062-54.960938-42.039062-4.152344-.011719-8.300781.292969-12.40625.902344-33.722656-30.460938-51.59375-58.421875-51.59375-80.902344 0-29.894531 14.886719-72 48-72 27.625 0 39.390625 14.761719 49.777344 27.785156 2.675781 3.53125 5.589844 6.882813 8.71875 10.023438 3.085937 2.925781 7.921875 2.925781 11.007812 0 3.128906-3.140625 6.042969-6.492188 8.71875-10.023438 10.386719-13.023437 22.152344-27.785156 49.777344-27.785156 33.113281 0 48 42.105469 48 72 0 47.863281-77.679688 103.816406-105.039062 122.039062zm0 0"/></svg>